:FULLY-SPECIFIED
:FORCE-ALL-JOINTS-BE-3DOF
:DEGREES
102
root 7.04473 16.8338 -27.0985 1.63346 7.10684 -3.44139
lfemur -23.3677 9.77262 -14.1232
ltibia 38.3423 0 0
lfoot -16.2049 -2.98209 0
ltoes 26.4487 0 0
rfemur -35.8749 -7.27949 16.2544
rtibia 36.7896 0 0
rfoot -11.8193 -5.07437 0
rtoes -10.5132 0 0
lowerback 4.79784 1.15818 0.726512
upperback 1.09638 1.39727 0.966455
thorax -1.28133 0.689581 0.911657
lowerneck -11.1365 -2.94301 2.30551
upperneck -2.53224 -4.16263 1.25901
head 1.06638 -2.07472 -0.150802
lclavicle -3.54849e-14 1.0511e-14 0
lhumerus -41.4964 -11.2337 91.9973
lradius 46.3992 0 0
lwrist 10.3049 0 0
lhand -2.95653 4.45316 0
lfingers 7.12502 0 0
lthumb 22.7304 32.8596 0
rclavicle -3.54849e-14 1.0511e-14 0
rhumerus -39.2171 0.387241 -74.4826
rradius 52.6895 0 0
rwrist 4.78972 0 0
rhand -11.364 -18.8777 0
rfingers 7.12502 0 0
rthumb 14.6357 -47.8399 0
103
root 7.10726 16.8435 -27.0605 0.894644 7.35937 -3.2399
lfemur -22.1576 9.64872 -14.3367
ltibia 37.6472 0 0
lfoot -15.9695 -3.57739 0
ltoes 26.9488 0 0
rfemur -37.7504 -7.65988 15.7022
rtibia 37.5779 0 0
rfoot -10.495 -4.06522 0
rtoes -10.597 0 0
lowerback 5.45008 0.952391 0.520618
upperback 1.3408 1.11762 1.00666
thorax -1.3908 0.550434 1.08134
lowerneck -11.1925 -2.89726 2.22714
upperneck -2.30882 -4.09847 1.24013
head 1.15034 -2.03984 -0.144894
lclavicle -3.7652e-14 1.0395e-14 0
lhumerus -41.3937 -11.4564 92.0277
lradius 46.5374 0 0
lwrist 10.3923 0 0
lhand -2.29049 4.62745 0
lfingers 7.12502 0 0
lthumb 23.3689 32.9491 0
rclavicle -3.7652e-14 1.0395e-14 0
rhumerus -39.3702 0.143681 -73.2525
rradius 53.4014 0 0
rwrist 4.58062 0 0
rhand -10.3641 -18.6861 0
rfingers 7.12502 0 0
rthumb 15.5977 -47.5665 0
104
root 7.16995 16.8533 -27.0225 0.154066 7.6125 -3.03792
lfemur -20.9445 9.52454 -14.5508
ltibia 36.9506 0 0
lfoot -15.7335 -4.17411 0
ltoes 27.45 0 0
rfemur -39.6305 -8.04116 15.1487
rtibia 38.3681 0 0
rfoot -9.16757 -3.05368 0
rtoes -10.681 0 0
lowerback 6.10388 0.746109 0.314232
upperback 1.5858 0.837294 1.04696
thorax -1.50053 0.410956 1.25142
lowerneck -11.2487 -2.8514 2.14858
upperneck -2.08486 -4.03414 1.22121
head 1.2345 -2.00486 -0.138972
lclavicle -3.98243e-14 1.02786e-14 0
lhumerus -41.2906 -11.6796 92.058
lradius 46.676 0 0
lwrist 10.48 0 0
lhand -1.62287 4.80217 0
lfingers 7.12502 0 0
lthumb 24.0088 33.0389 0
rclavicle -3.98243e-14 1.02786e-14 0
rhumerus -39.5238 -0.100461 -72.0195
rradius 54.115 0 0
rwrist 4.37101 0 0
rhand -9.36183 -18.494 0
rfingers 7.12502 0 0
rthumb 16.5619 -47.2924 0
105
root 7.23248 16.863 -26.9845 -0.58475 7.86503 -2.83643
lfemur -19.7344 9.40064 -14.7643
ltibia 36.2555 0 0
lfoot -15.4981 -4.76941 0
ltoes 27.9501 0 0
rfemur -41.506 -8.42155 14.5965
rtibia 39.1564 0 0
rfoot -7.84329 -2.04453 0
rtoes -10.7648 0 0
lowerback 6.75612 0.540319 0.108338
upperback 1.83022 0.557638 1.08716
thorax -1.61 0.271809 1.4211
lowerneck -11.3047 -2.80565 2.07021
upperneck -1.86144 -3.96998 1.20233
head 1.31846 -1.96998 -0.133064
lclavicle -4.19914e-14 1.01626e-14 0
lhumerus -41.1879 -11.9023 92.0884
lradius 46.8142 0 0
lwrist 10.5674 0 0
lhand -0.956831 4.97646 0
lfingers 7.12502 0 0
lthumb 24.6473 33.1284 0
rclavicle -4.19914e-14 1.01626e-14 0
rhumerus -39.6769 -0.344021 -70.7894
rradius 54.8269 0 0
rwrist 4.16191 0 0
rhand -8.36194 -18.3024 0
rfingers 7.12502 0 0
rthumb 17.5239 -47.019 0
106
root 7.29457 16.8727 -26.9468 -1.31828 8.11575 -2.63637
lfemur -18.5329 9.27764 -14.9762
ltibia 35.5655 0 0
lfoot -15.2644 -5.36044 0
ltoes 28.4467 0 0
rfemur -43.3682 -8.7992 14.0483
rtibia 39.9391 0 0
rfoot -6.52849 -1.04261 0
rtoes -10.848 0 0
lowerback 7.4037 0.336001 -0.0960834
upperback 2.0729 0.279984 1.12707
thorax -1.71868 0.133658 1.58957
lowerneck -11.3603 -2.76023 1.9924
upperneck -1.63961 -3.90627 1.18359
head 1.40182 -1.93534 -0.127199
lclavicle -4.4143e-14 1.00474e-14 0
lhumerus -41.0859 -12.1233 92.1185
lradius 46.9514 0 0
lwrist 10.6542 0 0
lhand -0.295562 5.14951 0
lfingers 7.12502 0 0
lthumb 25.2812 33.2172 0
rclavicle -4.4143e-14 1.00474e-14 0
rhumerus -39.8289 -0.585838 -69.5681
rradius 55.5337 0 0
rwrist 3.9543 0 0
rhand -7.3692 -18.1121 0
rfingers 7.12502 0 0
rthumb 18.479 -46.7475 0
107
root 7.35591 16.8823 -26.9095 -2.04299 8.36346 -2.43872
lfemur -17.3458 9.15611 -15.1856
ltibia 34.8837 0 0
lfoot -15.0335 -5.94438 0
ltoes 28.9372 0 0
rfemur -45.208 -9.17233 13.5067
rtibia 40.7123 0 0
rfoot -5.22949 -0.0527321 0
rtoes -10.9302 0 0
lowerback 8.04349 0.134138 -0.298048
upperback 2.31265 0.00566637 1.16651
thorax -1.82606 -0.00283251 1.75601
lowerneck -11.4153 -2.71535 1.91552
upperneck -1.42045 -3.84333 1.16507
head 1.48418 -1.90112 -0.121404
lclavicle -4.62687e-14 9.9335e-15 0
lhumerus -40.9851 -12.3418 92.1482
lradius 47.0869 0 0
lwrist 10.74 0 0
lhand 0.357763 5.32047 0
lfingers 7.12502 0 0
lthumb 25.9074 33.305 0
rclavicle -4.62687e-14 9.9335e-15 0
rhumerus -39.9791 -0.82475 -68.3614
rradius 56.2321 0 0
rwrist 3.74919 0 0
rhand -6.38839 -17.9242 0
rfingers 7.12502 0 0
rthumb 19.4226 -46.4793 0
108
root 7.41621 16.8917 -26.8729 -2.75537 8.60696 -2.24444
lfemur -16.179 9.03665 -15.3915
ltibia 34.2135 0 0
lfoot -14.8065 -6.51837 0
ltoes 29.4194 0 0
rfemur -47.0164 -9.5391 12.9742
rtibia 41.4724 0 0
rfoot -3.9526 0.920297 0
rtoes -11.011 0 0
lowerback 8.67239 -0.0642883 -0.496575
upperback 2.54833 -0.263981 1.20527
thorax -1.93161 -0.137 1.91962
lowerneck -11.4693 -2.67123 1.83996
upperneck -1.20502 -3.78145 1.14686
head 1.56514 -1.86748 -0.115707
lclavicle -4.83582e-14 9.8216e-15 0
lhumerus -40.886 -12.5565 92.1774
lradius 47.2202 0 0
lwrist 10.8243 0 0
lhand 0.999965 5.48853 0
lfingers 7.12502 0 0
lthumb 26.523 33.3913 0
rclavicle -4.83582e-14 9.8216e-15 0
rhumerus -40.1268 -1.05959 -67.1754
rradius 56.9185 0 0
rwrist 3.54756 0 0
rhand -5.42428 -17.7394 0
rfingers 7.12502 0 0
rthumb 20.3501 -46.2157 0
109
root 7.47516 16.9009 -26.8371 -3.45188 8.84503 -2.05448
lfemur -15.0381 8.91985 -15.5928
ltibia 33.5583 0 0
lfoot -14.5846 -7.07958 0
ltoes 29.8909 0 0
rfemur -48.7846 -9.8977 12.4537
rtibia 42.2156 0 0
rfoot -2.70415 1.87166 0
rtoes -11.09 0 0
lowerback 9.28729 -0.258296 -0.690681
upperback 2.77876 -0.527625 1.24317
thorax -2.03481 -0.268179 2.07958
lowerneck -11.5221 -2.6281 1.76607
upperneck -0.99439 -3.72096 1.12907
head 1.64429 -1.83459 -0.110138
lclavicle -5.04012e-14 9.71218e-15 0
lhumerus -40.7891 -12.7664 92.206
lradius 47.3504 0 0
lwrist 10.9068 0 0
lhand 1.62787 5.65285 0
lfingers 7.12502 0 0
lthumb 27.1249 33.4757 0
rclavicle -5.04012e-14 9.71218e-15 0
rhumerus -40.2712 -1.28921 -66.0157
rradius 57.5896 0 0
rwrist 3.35043 0 0
rhand -4.48163 -17.5587 0
rfingers 7.12502 0 0
rthumb 21.257 -45.9579 0
110
root 7.53247 16.9099 -26.8023 -4.12901 9.07647 -1.86981
lfemur -13.929 8.80631 -15.7884
ltibia 32.9213 0 0
lfoot -14.3689 -7.62517 0
ltoes 30.3492 0 0
rfemur -50.5036 -10.2463 11.9476
rtibia 42.938 0 0
rfoot -1.49045 2.79654 0
rtoes -11.1668 0 0
lowerback 9.88507 -0.446903 -0.879383
upperback 3.00277 -0.783929 1.28002
thorax -2.13514 -0.395707 2.2351
lowerneck -11.5734 -2.58617 1.69425
upperneck -0.789621 -3.66215 1.11176
head 1.72125 -1.80261 -0.104723
lclavicle -5.23874e-14 9.60581e-15 0
lhumerus -40.6949 -12.9704 92.2338
lradius 47.4771 0 0
lwrist 10.9869 0 0
lhand 2.23829 5.81259 0
lfingers 7.12502 0 0
lthumb 27.7101 33.5577 0
rclavicle -5.23874e-14 9.60581e-15 0
rhumerus -40.4115 -1.51243 -64.8883
rradius 58.2421 0 0
rwrist 3.15879 0 0
rhand -3.56523 -17.3831 0
rfingers 7.12502 0 0
rthumb 22.1386 -45.7074 0
111
root 7.58785 16.9185 -26.7687 -4.78322 9.30009 -1.69139
lfemur -12.8574 8.6966 -15.9775
ltibia 32.3058 0 0
lfoot -14.1604 -8.1523 0
ltoes 30.792 0 0
rfemur -52.1644 -10.5831 11.4586
rtibia 43.6361 0 0
rfoot -0.317823 3.69012 0
rtoes -11.241 0 0
lowerback 10.4626 -0.629128 -1.0617
upperback 3.2192 -1.03156 1.31562
thorax -2.23207 -0.51892 2.38535
lowerneck -11.623 -2.54566 1.62485
upperneck -0.591781 -3.60533 1.09505
head 1.79559 -1.77172 -0.0994917
lclavicle -5.43063e-14 9.50304e-15 0
lhumerus -40.6039 -13.1676 92.2606
lradius 47.5995 0 0
lwrist 11.0643 0 0
lhand 2.82806 5.96692 0
lfingers 7.12502 0 0
lthumb 28.2754 33.6369 0
rclavicle -5.43063e-14 9.50304e-15 0
rhumerus -40.5471 -1.7281 -63.799
rradius 58.8725 0 0
rwrist 2.97363 0 0
rhand -2.67984 -17.2134 0
rfingers 7.12502 0 0
rthumb 22.9904 -45.4653 0
112
root 7.64098 16.9268 -26.7364 -5.41099 9.51466 -1.52018
lfemur -11.8291 8.59133 -16.1589
ltibia 31.7152 0 0
lfoot -13.9604 -8.65813 0
ltoes 31.217 0 0
rfemur -53.758 -10.9064 10.9894
rtibia 44.3059 0 0
rfoot 0.807417 4.54759 0
rtoes -11.3122 0 0
lowerback 11.0168 -0.803989 -1.23665
upperback 3.42689 -1.26918 1.34978
thorax -2.32509 -0.637153 2.52952
lowerneck -11.6707 -2.50678 1.55826
upperneck -0.401937 -3.55081 1.079
head 1.86693 -1.74208 -0.0944718
lclavicle -5.61477e-14 9.40442e-15 0
lhumerus -40.5166 -13.3568 92.2864
lradius 47.7169 0 0
lwrist 11.1386 0 0
lhand 3.39399 6.11502 0
lfingers 7.12502 0 0
lthumb 28.8179 33.713 0
rclavicle -5.61477e-14 9.40442e-15 0
rhumerus -40.6773 -1.93506 -62.7538
rradius 59.4774 0 0
rwrist 2.79595 0 0
rhand -1.83023 -17.0506 0
rfingers 7.12502 0 0
rthumb 23.8078 -45.2329 0
113
root 7.69158 16.9347 -26.7057 -6.0088 9.71899 -1.35715
lfemur -10.85 8.49108 -16.3317
ltibia 31.1529 0 0
lfoot -13.7699 -9.13981 0
ltoes 31.6216 0 0
rfemur -55.2756 -11.2141 10.5426
rtibia 44.9437 0 0
rfoot 1.87895 5.36413 0
rtoes -11.3801 0 0
lowerback 11.5446 -0.970503 -1.40325
upperback 3.62466 -1.49547 1.38231
thorax -2.41367 -0.749743 2.66682
lowerneck -11.716 -2.46977 1.49484
upperneck -0.221154 -3.49889 1.06373
head 1.93487 -1.71385 -0.0896914
lclavicle -5.79012e-14 9.31051e-15 0
lhumerus -40.4334 -13.537 92.3109
lradius 47.8287 0 0
lwrist 11.2094 0 0
lhand 3.93291 6.25605 0
lfingers 7.12502 0 0
lthumb 29.3345 33.7854 0
rclavicle -5.79012e-14 9.31051e-15 0
rhumerus -40.8012 -2.13213 -61.7585
rradius 60.0534 0 0
rwrist 2.62675 0 0
rhand -1.02117 -16.8956 0
rfingers 7.12502 0 0
rthumb 24.5862 -45.0117 0
114
root 7.73935 16.9421 -26.6766 -6.57312 9.91188 -1.20324
lfemur -9.92562 8.39645 -16.4947
ltibia 30.622 0 0
lfoot -13.5901 -9.59451 0
ltoes 32.0036 0 0
rfemur -56.7082 -11.5047 10.1209
rtibia 45.5459 0 0
rfoot 2.89045 6.13493 0
rtoes -11.4441 0 0
lowerback 12.0428 -1.12769 -1.56051
upperback 3.81136 -1.70907 1.41301
thorax -2.49728 -0.856025 2.79643
lowerneck -11.7588 -2.43482 1.43498
upperneck -0.0504989 -3.44987 1.04931
head 1.999 -1.6872 -0.0851789
lclavicle -5.95564e-14 9.22185e-15 0
lhumerus -40.355 -13.7071 92.3341
lradius 47.9342 0 0
lwrist 11.2762 0 0
lhand 4.44164 6.38918 0
lfingers 7.12502 0 0
lthumb 29.8222 33.8538 0
rclavicle -5.95564e-14 9.22185e-15 0
rhumerus -40.9181 -2.31817 -60.8189
rradius 60.5972 0 0
rwrist 2.46703 0 0
rhand -0.257432 -16.7492 0
rfingers 7.12502 0 0
rthumb 25.3209 -44.8029 0
